<svg width="29" height="22" viewBox="0 0 29 22" fill="none" xmlns="http://www.w3.org/2000/svg">
<path d="M17.8125 0.000433934C17.2578 0.00433993 16.707 0.0316839 16.125 0.187934C15.543 0.344184 14.9609 0.594184 14.3438 1.00043C13.5781 0.551215 12.8359 0.180122 12.125 0.0941839C11.2422 -0.0151911 10.4219 0.0434029 9.46875 0.0629339C8.33984 0.0863719 7.60156 0.664497 6.40625 1.12543C5.21094 1.58637 3.67188 2.03168 1.5 2.03168H0.5V11.6567L1.0625 11.9379L2.90625 12.8442L9.46875 20.1567L9.5 20.1879C10.25 20.9301 11.2617 21.1137 12.1562 21.0629C13.0508 21.0122 13.8906 20.7504 14.5625 20.3442C16.0391 19.4536 20.0625 16.6567 20.0625 16.6567L20.1562 16.5942L20.2188 16.5317C20.6953 16.059 20.9336 15.4809 21.0938 14.8754L24.9375 12.9379L27.8125 11.9692L28.5 11.7504V2.03168H27.5C25.332 2.03168 23.7891 1.56293 22.5938 1.09418C21.3984 0.625434 20.6719 0.0551219 19.5312 0.0316839C18.9219 0.0199649 18.3672 -0.00347207 17.8125 0.000433934ZM17.8438 2.00043C18.293 1.99653 18.8125 2.01996 19.4688 2.03168C19.5742 2.03559 20.5352 2.44575 21.875 2.96918C23.0078 3.4145 24.582 3.80903 26.5 3.93793V10.3129L24.1875 11.0942H24.125L24.0625 11.1254L21.0312 12.6567C20.8633 12.1997 20.6328 11.7778 20.2812 11.4067L20.2188 11.3129L15.9688 6.09418L15.3438 5.31293L14.5625 5.93793L11.875 8.12543C10.9727 8.75043 10.2422 8.57075 9.5 8.21918C9.28516 8.11762 9.29688 8.08637 9.125 7.96918L13.6875 4.18793L13.75 4.12543C15.1055 2.78168 15.9375 2.31684 16.6562 2.12543C17.0156 2.02778 17.3945 2.00434 17.8438 2.00043ZM10.875 2.03168C11.2578 2.02387 11.5781 2.02778 11.875 2.06293C12.1367 2.09418 12.4336 2.31684 12.6875 2.40668C12.5859 2.50043 12.5117 2.55512 12.4062 2.65668C12.3828 2.68012 12.3672 2.69575 12.3438 2.71918L6.875 7.25043L6.03125 7.93793L6.78125 8.71918C6.78125 8.71918 7.50391 9.50043 8.625 10.0317C9.74609 10.5629 11.4766 10.8637 13.0312 9.78168L13.0938 9.71918L15.0312 8.12543L18.7188 12.6567L18.75 12.7192L18.7812 12.7504C19.4414 13.4028 19.4258 14.4301 18.7812 15.0942C18.7734 15.102 18.7891 15.1176 18.7812 15.1254C18.7734 15.1293 18.6406 15.2075 18.625 15.2192L17.3125 13.4379L15.6875 14.6254L16.9688 16.3442C16.4492 16.6957 16.2148 16.8793 15.6562 17.2504L14.3125 15.4379L12.6875 16.6254L13.9688 18.3442C13.8555 18.4145 13.6211 18.5707 13.5312 18.6254C13.2148 18.8168 12.6055 19.0317 12.0625 19.0629C11.5508 19.0903 11.1602 18.9731 10.9688 18.8129L10.9375 18.7817L4.25 11.3754L4.125 11.2192L2.5 10.4067V3.93793C4.41016 3.81293 5.99609 3.43403 7.125 3.00043C8.46094 2.48871 9.41406 2.06684 9.53125 2.06293C10.043 2.05121 10.4922 2.0395 10.875 2.03168Z" fill="#0F0D11"/>
</svg>
