<svg width="24" height="24" viewBox="0 0 24 24" fill="none" xmlns="http://www.w3.org/2000/svg">
<g clip-path="url(#clip0_41_27662)">
<path d="M16.555 3.84299L20.157 7.44499C20.4242 7.71215 20.6362 8.02933 20.7808 8.37841C20.9254 8.72749 20.9998 9.10164 20.9998 9.47949C20.9998 9.85734 20.9254 10.2315 20.7808 10.5806C20.6362 10.9297 20.4242 11.2468 20.157 11.514L17.514 14.157C17.2468 14.4242 16.9297 14.6361 16.5806 14.7808C16.2315 14.9254 15.8573 14.9998 15.4795 14.9998C15.1017 14.9998 14.7275 14.9254 14.3784 14.7808C14.0293 14.6361 13.7122 14.4242 13.445 14.157L13.144 13.856L6.586 20.414C6.25372 20.7462 5.81507 20.9509 5.347 20.992L5.172 21H4C3.75507 21 3.51866 20.91 3.33563 20.7473C3.15259 20.5845 3.03566 20.3602 3.007 20.117L3 20V18.828C3.00011 18.3584 3.16543 17.9039 3.467 17.544L3.586 17.414L4 17H6V15H8V13L10.144 10.856L9.843 10.555C9.5758 10.2878 9.36384 9.97065 9.21923 9.62157C9.07462 9.27249 9.00019 8.89834 9.00019 8.52049C9.00019 8.14264 9.07462 7.76849 9.21923 7.41941C9.36384 7.07033 9.5758 6.75315 9.843 6.48599L12.486 3.84299C12.7532 3.57579 13.0703 3.36383 13.4194 3.21922C13.7685 3.07461 14.1427 3.00018 14.5205 3.00018C14.8983 3.00018 15.2725 3.07461 15.6216 3.21922C15.9707 3.36383 16.2878 3.57579 16.555 3.84299Z" stroke="#0F0D11" stroke-width="1.5" stroke-linecap="round" stroke-linejoin="round"/>
<path d="M15 9H15.01" stroke="#0F0D11" stroke-width="1.5" stroke-linecap="round" stroke-linejoin="round"/>
</g>
<defs>
<clipPath id="clip0_41_27662">
<rect width="24" height="24" fill="white"/>
</clipPath>
</defs>
</svg>
