<svg width="12" height="12" viewBox="0 0 12 12" fill="none" xmlns="http://www.w3.org/2000/svg">
<path d="M4.28215 4.01706L1.24508 4.45739L1.19129 4.46834C1.10986 4.48995 1.03563 4.53279 0.97617 4.59249C0.916713 4.65218 0.874162 4.72658 0.852864 4.80809C0.831566 4.8896 0.832283 4.97531 0.854942 5.05646C0.877601 5.1376 0.921391 5.21128 0.981838 5.26997L3.18205 7.41163L2.66317 10.4368L2.65699 10.4892C2.652 10.5734 2.66949 10.6574 2.70766 10.7326C2.74583 10.8079 2.80331 10.8716 2.87422 10.9174C2.94512 10.9631 3.0269 10.9891 3.11119 10.9928C3.19547 10.9966 3.27923 10.9778 3.35389 10.9385L6.07012 9.51044L8.78015 10.9385L8.82775 10.9604C8.90633 10.9914 8.99172 11.0009 9.07517 10.9879C9.15863 10.975 9.23713 10.9401 9.30264 10.8868C9.36815 10.8335 9.4183 10.7637 9.44794 10.6846C9.47759 10.6056 9.48567 10.52 9.47135 10.4368L8.952 7.41163L11.1532 5.26949L11.1903 5.22903C11.2433 5.1637 11.2781 5.08549 11.2911 5.00234C11.304 4.9192 11.2947 4.83411 11.2641 4.75573C11.2335 4.67735 11.1826 4.60849 11.1167 4.55617C11.0508 4.50384 10.9722 4.46992 10.889 4.45786L7.85189 4.01706L6.49426 1.26561C6.45498 1.18589 6.39416 1.11876 6.31869 1.07182C6.24323 1.02488 6.15613 1 6.06726 1C5.97839 1 5.89129 1.02488 5.81583 1.07182C5.74036 1.11876 5.67955 1.18589 5.64026 1.26561L4.28215 4.01706Z" fill="#EDDE56" stroke="#EDDE56" stroke-width="0.476029" stroke-linecap="round" stroke-linejoin="round"/>
</svg>
